<svg xmlns="http://www.w3.org/2000/svg" width="200" height="200" viewBox="0 0 200 200">
  <g fill="none" stroke="#3a322a" stroke-width="1.4" stroke-linecap="round" stroke-linejoin="round" opacity="0.05">
    <circle cx="32" cy="30" r="9"/>
    <path d="M 74 38 Q 83 24 92 38 Q 101 52 110 38"/>
    <path d="M 150 32 L 159 41 L 150 50 L 141 41 Z"/>
    <circle cx="174" cy="64" r="3" fill="#3a322a"/>
    <path d="M 38 84 C 34 78 41 72 46 78 C 51 72 58 78 54 84 L 46 93 Z"/>
    <path d="M 93 94 L 100 94 M 96.5 90 L 96.5 98 M 92 89 L 101 99 M 92 99 L 101 89"/>
    <path d="M 140 92 a 9 9 0 1 0 -8 8"/>
    <path d="M 26 140 L 38 154 L 14 154 Z"/>
    <path d="M 76 140 L 92 140 M 88 136 L 92 140 L 88 144"/>
    <circle cx="118" cy="146" r="3.4"/>
    <circle cx="128" cy="134" r="1.7" fill="#3a322a"/>
    <path d="M 156 140 Q 164 133 168 140 Q 172 147 179 140"/>
    <path d="M 102 170 L 104 177 L 111 177 L 105.5 181.5 L 108 188 L 102 184 L 96 188 L 98.5 181.5 L 93 177 L 100 177 Z"/>
    <circle cx="32" cy="172" r="2.2" fill="#3a322a"/>
    <circle cx="54" cy="184" r="1.7" fill="#3a322a"/>
    <circle cx="184" cy="172" r="2.8" fill="#3a322a"/>
    <path d="M 58 58 Q 64 50 70 58 Q 76 66 82 58"/>
    <path d="M 122 180 Q 130 173 135 180"/>
  </g>
</svg>
