<svg width="512" height="512" viewBox="0 0 1254 1254" fill="none" xmlns="http://www.w3.org/2000/svg" role="img" aria-label="Lena">
  <rect x="167" y="166" width="920" height="920" rx="256" fill="#E35B2E"/>
  <path d="M434 329 C437.6 328.9 521.2 328.9 524 329 C526.8 329.1 529.8 330.2 532 332 C534.2 333.8 537.9 336.7 538 340 C538.1 343.3 538.9 721.1 539 730 C539.1 738.9 541.6 747.8 545 756 C548.4 764.2 553.8 773.8 560 781 C566.2 788.2 573.8 794.3 582 799 C590.2 803.7 601.6 808.3 612 811 C622.4 813.7 635.9 815.7 648 816 C660.1 816.3 684.8 814.5 695 813 C705.2 811.5 715.3 808.7 725 805 C734.7 801.3 746.5 796.4 756 790 C765.5 783.6 780.6 771.2 789 762 C797.4 752.8 810 731 810 731 C810 731 817.5 728.8 821 730 C824.5 731.2 834.7 739.0 842 742 C849.3 745.0 857.2 746.9 865 748 C872.8 749.1 890 749 890 749 C890 749 892.8 765.8 891 774 C889.2 782.2 884.0 791.9 879 800 C874.0 808.1 860.5 829.2 849 842 C837.5 854.8 822.4 868.2 809 878 C795.6 887.8 780.7 896.2 766 903 C751.3 909.8 735.8 915.4 720 919 C704.2 922.6 680.2 926.4 660 927 C639.8 927.6 610.4 925.7 592 923 C573.6 920.3 552.1 914.3 538 909 C523.9 903.7 510.3 896.8 498 888 C485.7 879.2 471.4 867.1 461 854 C450.6 840.9 438.0 815.5 434 807 C430.0 798.5 427.8 789.2 426 780 C424.2 770.8 419.3 748.2 419 732 C418.7 715.8 419.0 344.1 419 341 C419.0 337.9 421.5 335.0 424 333 C426.5 331.0 430.4 329.1 434 329 Z" fill="#FDF3E6"/>
  <circle cx="862" cy="683" r="49.5" fill="#599372"/>
</svg>
