<svg xmlns="http://www.w3.org/2000/svg" width="180" height="180" viewBox="0 0 180 180">
  <g fill="none" stroke="#D9613A" stroke-width="1.3" stroke-linecap="round" stroke-linejoin="round" opacity="0.10">
    <circle cx="30" cy="28" r="8"/>
    <path d="M 70 35 Q 78 22 86 35 Q 94 48 102 35"/>
    <path d="M 140 30 L 148 38 L 140 46 L 132 38 Z"/>
    <circle cx="160" cy="60" r="2.5" fill="#D9613A"/>
    <path d="M 35 78 C 32 73 38 68 42 73 C 46 68 52 73 49 78 L 42 86 Z"/>
    <path d="M 87 88 L 93 88 M 90 85 L 90 91 M 86 84 L 94 92 M 86 92 L 94 84"/>
    <path d="M 130 86 a 8 8 0 1 0 -7 7"/>
    <path d="M 25 130 L 35 142 L 15 142 Z"/>
    <path d="M 70 130 L 85 130 M 82 127 L 85 130 L 82 133"/>
    <circle cx="110" cy="135" r="3"/>
    <circle cx="118" cy="125" r="1.5" fill="#D9613A"/>
    <path d="M 145 130 Q 152 124 156 130 Q 160 136 166 130"/>
    <path d="M 95 158 L 97 164 L 103 164 L 98 168 L 100 174 L 95 170 L 90 174 L 92 168 L 87 164 L 93 164 Z"/>
    <circle cx="30" cy="160" r="2" fill="#D9613A"/>
    <circle cx="50" cy="170" r="1.5" fill="#D9613A"/>
    <circle cx="170" cy="160" r="2.5" fill="#D9613A"/>
    <path d="M 55 55 Q 60 48 65 55 Q 70 62 75 55"/>
    <path d="M 115 168 Q 122 162 126 168"/>
  </g>
</svg>
